# xmcd
#
# Track frame offsets: 
#        150
#        2641
#        21284
#        35425
#        52064
#        68659
#        85912
#        97339
#        113091
#        132213
#        147641
#        165065
#
# Disc length: 2604 seconds
#
# Revision: 0
# Processed by: cddbd v1.5.2PL0 Copyright (c) Steve Scherf et al.
# Submitted via: ExactAudioCopy v0.99pb4
#
DISCID=9d0a2a0c
DTITLE=Joey Martin - Strong Enough To Cry
DYEAR=2005
DGENRE=Country
TTITLE0=Intro
TTITLE1=Strong Enough To Cry
TTITLE2=That's Important To Me
TTITLE3=When The Needle Hits The Vinyl
TTITLE4=Nothing To Remember
TTITLE5=The Cowboy's Mine
TTITLE6=If Not 4 You
TTITLE7=Southern Girl
TTITLE8=Red
TTITLE9=Like a Rodeo (with Paul Overstreet)
TTITLE10=See You There
TTITLE11=Old Paint
EXTD=
EXTT0=
EXTT1=
EXTT2=
EXTT3=
EXTT4=
EXTT5=
EXTT6=
EXTT7=
EXTT8=
EXTT9=
EXTT10=
EXTT11=
PLAYORDER=
